<svg width="24" height="24" viewBox="0 0 24 24" fill="none" xmlns="http://www.w3.org/2000/svg">
<path d="M7.76514 12.0053L18.1937 1.57624C18.3585 1.4014 18.4486 1.16925 18.4451 0.929041C18.4415 0.688832 18.3445 0.459461 18.1746 0.289589C18.0048 0.119717 17.7754 0.0227086 17.5352 0.0191447C17.295 0.0155809 17.0628 0.105742 16.888 0.2705L5.80627 11.3528C5.63322 11.526 5.53601 11.7608 5.53601 12.0056C5.53601 12.2505 5.63322 12.4853 5.80627 12.6585L16.8885 23.7407C17.0629 23.9078 17.2958 24 17.5373 23.9974C17.7789 23.9949 18.0098 23.8978 18.1806 23.7271C18.3514 23.5563 18.4485 23.3254 18.4512 23.0839C18.4539 22.8424 18.3618 22.6095 18.1948 22.435L7.7646 12.0053H7.76514Z" fill="#539DA6"/>
</svg>
