<svg width="24" height="24" viewBox="0 0 24 24" fill="none" xmlns="http://www.w3.org/2000/svg">
<path d="M16.2349 11.9947L5.80629 22.4238C5.64153 22.5986 5.55137 22.8307 5.55493 23.071C5.55849 23.3112 5.6555 23.5405 5.82538 23.7104C5.99525 23.8803 6.22462 23.9773 6.46483 23.9809C6.70504 23.9844 6.93718 23.8943 7.11202 23.7295L18.1937 12.6472C18.3668 12.474 18.464 12.2392 18.464 11.9944C18.464 11.7495 18.3668 11.5147 18.1937 11.3415L7.11148 0.259262C6.93708 0.0921667 6.70417 2.57774e-05 6.46266 0.00258273C6.22115 0.00513968 5.99024 0.102192 5.81942 0.272942C5.6486 0.443693 5.55145 0.674558 5.54879 0.916071C5.54614 1.15758 5.63818 1.39053 5.8052 1.565L16.2354 11.9947H16.2349Z" fill="#539DA6"/>
</svg>
