<svg width="70" height="70" fill="none" xmlns="http://www.w3.org/2000/svg"><path d="M66.61 15.8H40.65V5.66A5.65 5.65 0 0035 0H5.65A5.65 5.65 0 000 5.65v58.7A5.65 5.65 0 005.65 70H35a5.65 5.65 0 005.65-5.65V47.42h-2.26V58.7H2.26V11.29h36.13v4.52H28.23a3.4 3.4 0 00-3.4 3.38v16.47l-9.5 9.5h51.28A3.4 3.4 0 0070 41.77V19.2a3.4 3.4 0 00-3.39-3.38zM38.4 60.98v3.38a3.4 3.4 0 01-3.39 3.4H5.65a3.4 3.4 0 01-3.4-3.4v-3.38H38.4zM2.26 9.03V5.65a3.4 3.4 0 013.39-3.4H35a3.4 3.4 0 013.39 3.4v3.38H2.26zm65.48 32.74c0 .63-.5 1.13-1.13 1.13H20.8l6.3-6.3V19.2c0-.63.51-1.14 1.14-1.14H66.6c.63 0 1.13.51 1.13 1.13v22.58z" fill="#539DA6"/><path d="M58.71 29.35a2.26 2.26 0 112.26-2.25h2.26a4.52 4.52 0 10-4.52 4.51 2.26 2.26 0 11-2.26 2.26H54.2a4.52 4.52 0 104.52-4.52zM36.13 29.35a2.26 2.26 0 112.26-2.25h2.26a4.52 4.52 0 10-4.52 4.51 2.26 2.26 0 11-2.26 2.26h-2.26a4.52 4.52 0 104.52-4.52zM48.8 22.58l-1.38 5.5-1.38-5.5H42.9v14.68h2.26v-8.9l2.26 9.04 2.26-9.04v8.9h2.26V22.58H48.8zM24.84 63.23H15.8v2.25h9.03v-2.25zM36.13 47.42h-2.26v2.26h2.26v-2.26zM31.61 47.42h-2.26v2.26h2.26v-2.26zM27.1 47.42h-2.26v2.26h2.26v-2.26zM22.58 47.42h-2.26v2.26h2.26v-2.26z" fill="#539DA6"/></svg>